Coordinates
version=1
nRows=17
nColumns=24
inDegrees=yes

Units are S.I. units (second, meters, Newtons, ...)
Angles are in degrees.

endheader
time	pelvis_tilt	pelvis_list	pelvis_rotation	pelvis_tx	pelvis_ty	pelvis_tz	hip_flexion_r	hip_adduction_r	hip_rotation_r	knee_angle_r	ankle_angle_r	subtalar_angle_r	mtp_angle_r	hip_flexion_l	hip_adduction_l	hip_rotation_l	knee_angle_l	ankle_angle_l	subtalar_angle_l	mtp_angle_l	lumbar_extension	lumbar_bending	lumbar_rotation
      1.45383333	      2.74725371	      4.92678177	     -1.30975483	      0.22499334	      1.03071952	      0.29071857	     11.09932550	     -7.72814086	     -8.78008561	    -68.69135137	     -3.69710614	     -7.03296950	      1.67670135	      5.57525629	      9.45593479	      4.26556352	    -12.56651063	      4.46498980	    -15.04487407	     -1.77496921	     -5.44326600	     -7.84942504	      3.63474577
      1.45800000	      2.72554289	      4.76405470	     -1.35602199	      0.22970998	      1.03142053	      0.29047869	     11.80631912	     -7.56780573	     -8.75920933	    -68.67064788	     -3.17513158	     -6.90017984	      1.66842701	      5.14099579	      9.30148948	      4.32580275	    -12.24368291	      4.50692838	    -15.11265305	     -1.76025874	     -5.49116602	     -7.63041298	      3.60984265
      1.46216667	      2.72447664	      4.60472327	     -1.39954516	      0.23441512	      1.03214131	      0.29024206	     12.47439376	     -7.41135364	     -8.75269359	    -68.58498900	     -2.68362288	     -6.80690591	      1.66397686	      4.68551477	      9.15076948	      4.38610455	    -11.92217066	      4.54570436	    -15.17624499	     -1.74791692	     -5.57343492	     -7.40800468	      3.58141315
      1.46633333	      2.72832161	      4.43863414	     -1.43913420	      0.23912814	      1.03284016	      0.29001055	     13.11941090	     -7.24110334	     -8.75253402	    -68.43462960	     -2.24502577	     -6.80606319	      1.66798698	      4.22376044	      8.99062020	      4.42703187	    -11.59941925	      4.61321926	    -15.20372797	     -1.74112484	     -5.63127577	     -7.20032292	      3.55018890
      1.47050000	      2.71971941	      4.29414949	     -1.45837281	      0.24380644	      1.03347204	      0.28970907	     13.77105004	     -7.10995284	     -8.77044742	    -68.25862569	     -1.74737381	     -6.62354040	      1.66481142	      3.77365219	      8.86423268	      4.55367224	    -11.26928734	      4.61739797	    -15.33191723	     -1.72744653	     -5.72188539	     -6.99131040	      3.48007689
      1.47466667	      2.71226787	      4.13163251	     -1.48355653	      0.24848342	      1.03407597	      0.28945370	     14.40431552	     -6.94274852	     -8.78936034	    -68.01082002	     -1.34428041	     -6.67936775	      1.67072533	      3.33788205	      8.70752050	      4.58998030	    -10.97120026	      4.68429910	    -15.35124290	     -1.72294886	     -5.78394411	     -6.77327627	      3.44990714
      1.47883333	      2.69846309	      3.96601456	     -1.49152256	      0.25315446	      1.03466207	      0.28915251	     15.02268652	     -6.77538268	     -8.82079948	    -67.69936047	     -0.93164331	     -6.67858875	      1.67878416	      2.90967154	      8.55121187	      4.65386608	    -10.67402183	      4.74791245	    -15.38116018	     -1.71883564	     -5.84821403	     -6.53756242	      3.40620174
      1.48300000	      2.73676160	      3.81947635	     -1.48657532	      0.25779634	      1.03527778	      0.28881196	     15.57027231	     -6.64440782	     -8.87623082	    -67.34946882	     -0.46968455	     -6.57381023	      1.68364270	      2.41075849	      8.42609765	      4.82100683	    -10.34281317	      4.72113635	    -15.57756067	     -1.71137273	     -6.01639318	     -6.32020427	      3.26437857
      1.48716667	      2.71336987	      3.66121363	     -1.48499691	      0.26245388	      1.03578406	      0.28850123	     16.16932137	     -6.48384788	     -8.91978610	    -66.93144852	     -0.10158032	     -6.62634354	      1.69192418	      2.00344267	      8.27456918	      4.87013376	    -10.06322875	      4.79650407	    -15.58248252	     -1.70907874	     -6.05423766	     -6.09878816	      3.23298416
      1.49133333	      2.69500460	      3.50416579	     -1.47517643	      0.26710076	      1.03626080	      0.28817238	     16.74519643	     -6.32746956	     -8.97416934	    -66.46206909	      0.28265446	     -6.65654196	      1.70180957	      1.59392566	      8.12535644	      4.93779728	     -9.78958188	      4.86914522	    -15.60107739	     -1.70762098	     -6.11667258	     -5.87072282	      3.18067890
      1.49550000	      2.72055685	      3.33846637	     -1.44526310	      0.27169319	      1.03677692	      0.28779809	     17.25153119	     -6.16917863	     -9.04910960	    -65.93183810	      0.66389018	     -6.62777414	      1.71501729	      1.13912179	      7.97201569	      5.06570185	     -9.51577545	      4.91662072	    -15.67202530	     -1.70824845	     -6.27757588	     -5.62147574	      3.06452243
      1.49966667	      2.73354855	      3.20189407	     -1.42653739	      0.27633548	      1.03723617	      0.28745059	     17.75691212	     -6.03989649	     -9.11280352	    -65.35322215	      1.03158884	     -6.64602143	      1.73153866	      0.68412248	      7.84797387	      5.18991394	     -9.21206433	      4.94631468	    -15.77328424	     -1.71414426	     -6.37211583	     -5.42117514	      2.92068156
      1.50383333	      2.70932595	      3.05492459	     -1.40477689	      0.28095975	      1.03761168	      0.28710842	     18.28658981	     -5.88992635	     -9.17303714	    -64.71834702	      1.39289787	     -6.72774602	      1.74193461	      0.29743540	      7.70562556	      5.23756062	     -8.96268476	      5.02009482	    -15.77391228	     -1.71542669	     -6.41579505	     -5.20777247	      2.87881496
      1.50800000	      2.71158832	      2.90494932	     -1.36296213	      0.28555959	      1.03799019	      0.28673007	     18.76329146	     -5.74452885	     -9.25267007	    -64.02197846	      1.71393487	     -6.74793936	      1.76070216	     -0.12458627	      7.56430473	      5.37501769	     -8.70018813	      5.07861024	    -15.84416161	     -1.72561120	     -6.53242793	     -4.98560525	      2.71725668
      1.51216667	      2.69814667	      2.77104206	     -1.33543869	      0.29017156	      1.03831150	      0.28638508	     19.24407763	     -5.60767635	     -9.31411810	    -63.27896477	      2.05914416	     -6.82463494	      1.77174430	     -0.51514942	      7.43426774	      5.42331024	     -8.46258899	      5.15508881	    -15.84508576	     -1.72897954	     -6.59039299	     -4.77863154	      2.66816713
      1.51633333	      2.69506763	      2.61625400	     -1.28483662	      0.29476435	      1.03863923	      0.28601681	     19.68089231	     -5.44873718	     -9.39326009	    -62.45721814	      2.35022122	     -6.87165884	      1.78457254	     -0.91287417	      7.28157287	      5.52774552	     -8.23544803	      5.23296873	    -15.86973774	     -1.73650541	     -6.70173965	     -4.56134200	      2.55983550
      1.52050000	      2.70214070	      2.48308050	     -1.24429890	      0.29938826	      1.03893387	      0.28566025	     20.09080269	     -5.31242541	     -9.46242531	    -61.58917542	      2.61155170	     -6.95208945	      1.80102272	     -1.33832283	      7.15240980	      5.64742273	     -7.97175520	      5.30018541	    -15.91284002	     -1.75271005	     -6.79972916	     -4.35602985	      2.39195440
